<svg width="396" height="54" viewBox="0 0 396 54" version="1.1" xmlns="http://www.w3.org/2000/svg" xmlns:xlink="http://www.w3.org/1999/xlink">
<title>Subtract</title>
<desc>Created using Figma</desc>
<g id="Canvas" transform="translate(198 175)">
<g id="Subtract">
<use xlink:href="#path0_fill" transform="translate(-198 -175)" fill="#FFFFFF"/>
</g>
</g>
<defs>
<path id="path0_fill" fill-rule="evenodd" d="M 170.35 12.7458C 170.35 8.97485 172.021 7.5419 174.679 7.5419C 177.337 7.5419 179.007 8.97485 179.007 12.7458L 179.007 41.2542C 179.007 45.0251 177.337 46.4581 174.679 46.4581C 172.021 46.4581 170.35 45.0251 170.35 41.2542L 170.35 12.7458ZM 161.998 40.7263C 161.998 49.1732 166.478 54 174.679 54C 182.88 54 187.36 49.1732 187.36 40.7263L 187.36 13.2737C 187.36 4.82681 182.88 0 174.679 0C 166.478 0 161.998 4.82681 161.998 13.2737L 161.998 40.7263ZM 0 8.14525L 8.7326 8.14525L 8.7326 53.3967L 17.0855 53.3967L 17.0855 8.14525L 25.8181 8.14525L 25.8181 0.603348L 0 0.603348L 0 8.14525ZM 37.8498 30.771L 47.3418 30.771L 47.3418 53.3967L 55.8466 53.3967L 55.8466 0.603348L 47.3418 0.603348L 47.3418 23.229L 37.8498 23.229L 37.8498 0.603348L 29.4969 0.603348L 29.4969 53.3967L 37.8498 53.3967L 37.8498 30.771ZM 84.6837 8.14525L 70.256 8.14525L 70.256 22.852L 81.7223 22.852L 81.7223 30.3939L 70.256 30.3939L 70.256 45.8548L 84.6837 45.8548L 84.6837 53.3967L 61.903 53.3967L 61.903 0.603348L 84.6837 0.603348L 84.6837 8.14525ZM 113.952 0.603348L 101.651 0.603348L 101.651 53.3967L 110.004 53.3967L 110.004 33.5614L 113.952 33.5614C 122.305 33.5614 126.406 28.9609 126.406 20.514L 126.406 13.6508C 126.406 5.2039 122.305 0.603348 113.952 0.603348ZM 113.952 8.14525C 116.61 8.14525 118.053 9.35196 118.053 13.1229L 118.053 21.0419C 118.053 24.8129 116.61 26.0196 113.952 26.0196L 110.004 26.0196L 110.004 8.14525L 113.952 8.14525ZM 148.12 30.771L 138.628 30.771L 138.628 53.3967L 130.275 53.3967L 130.275 0.603348L 138.628 0.603348L 138.628 23.229L 148.12 23.229L 148.12 0.603348L 156.625 0.603348L 156.625 53.3967L 148.12 53.3967L 148.12 30.771ZM 199.091 8.14525L 190.358 8.14525L 190.358 0.603348L 216.177 0.603348L 216.177 8.14525L 207.444 8.14525L 207.444 53.3967L 199.091 53.3967L 199.091 8.14525ZM 227.525 12.7458C 227.525 8.97485 229.195 7.5419 231.853 7.5419C 234.511 7.5419 236.181 8.97485 236.181 12.7458L 236.181 41.2542C 236.181 45.0251 234.511 46.4581 231.853 46.4581C 229.195 46.4581 227.525 45.0251 227.525 41.2542L 227.525 12.7458ZM 219.172 40.7263C 219.172 49.1732 223.652 54 231.853 54C 240.054 54 244.534 49.1732 244.534 40.7263L 244.534 13.2737C 244.534 4.82681 240.054 0 231.853 0C 223.652 0 219.172 4.82681 219.172 13.2737L 219.172 40.7263ZM 266.289 31.5251L 262.492 31.5251L 262.492 23.9832L 274.186 23.9832L 274.186 40.7263C 274.186 49.1732 269.934 54 261.733 54C 253.532 54 249.279 49.1732 249.279 40.7263L 249.279 13.2737C 249.279 4.82681 253.532 0 261.733 0C 269.934 0 274.186 4.82681 274.186 13.2737L 274.186 18.4022L 266.289 18.4022L 266.289 12.7458C 266.289 8.97485 264.618 7.5419 261.96 7.5419C 259.303 7.5419 257.632 8.97485 257.632 12.7458L 257.632 41.2542C 257.632 45.0251 259.303 46.3827 261.96 46.3827C 264.618 46.3827 266.289 45.0251 266.289 41.2542L 266.289 31.5251ZM 305.521 53.3967C 304.686 51.4358 304.61 49.5503 304.61 46.986L 304.61 38.8408C 304.61 33.3352 303.243 29.4134 299.066 27.6788L 299.066 27.5279C 302.787 25.7933 304.534 22.324 304.534 16.8939L 304.534 12.7458C 304.534 4.60056 300.813 0.603348 292.156 0.603348L 279.551 0.603348L 279.551 53.3967L 287.904 53.3967L 287.904 31.9022L 290.789 31.9022C 294.586 31.9022 296.257 33.7123 296.257 38.6145L 296.257 46.9106C 296.257 51.1362 296.55 52.0098 296.993 53.3277L 297.016 53.3967L 305.521 53.3967ZM 291.928 8.14525C 294.89 8.14525 296.181 9.80447 296.181 13.5754L 296.181 18.7793C 296.181 23.0028 294.282 24.3603 291.169 24.3603L 287.904 24.3603L 287.904 8.14525L 291.928 8.14525ZM 316.406 0.603348L 328.631 0.603348L 337.136 53.3967L 328.707 53.3967L 327.293 44.0064L 327.294 44.0063L 327.275 43.8862L 327.265 43.8184L 327.264 43.8184L 326.085 36.3717L 326.084 36.3717L 322.177 9.95531L 322.025 9.95531L 318.076 36.6536L 317.013 43.8184L 315.57 53.3967L 307.901 53.3967L 316.406 0.603348ZM 353.328 0.603348L 341.026 0.603348L 341.026 53.3967L 349.379 53.3967L 349.379 33.5614L 353.328 33.5614C 361.681 33.5614 365.781 28.9609 365.781 20.514L 365.781 13.6508C 365.781 5.2039 361.681 0.603348 353.328 0.603348ZM 353.328 8.14525C 355.985 8.14525 357.428 9.35196 357.428 13.1229L 357.428 21.0419C 357.428 24.8129 355.985 26.0196 353.328 26.0196L 349.379 26.0196L 349.379 8.14525L 353.328 8.14525ZM 387.495 30.771L 378.003 30.771L 378.003 53.3967L 369.65 53.3967L 369.65 0.603348L 378.003 0.603348L 378.003 23.229L 387.495 23.229L 387.495 0.603348L 396 0.603348L 396 53.3967L 387.495 53.3967L 387.495 30.771Z"/>
</defs>
</svg>
